<?xml version="1.0" encoding="UTF-8"?>
<svg version="1.1" xmlns="http://www.w3.org/2000/svg" width="512" height="512">
<path d="M0 0 C168.96 0 337.92 0 512 0 C512 168.96 512 337.92 512 512 C343.04 512 174.08 512 0 512 C0 343.04 0 174.08 0 0 Z " fill="#760D19" transform="translate(0,0)"/>
<path d="M0 0 C3.36586751 3.21646869 5.74851662 6.36426074 6.203125 11.12890625 C6.37211 19.90204404 4.2479318 27.31326626 0 35 C-0.66 35 -1.32 35 -2 35 C-2.37125 36.07121094 -2.37125 36.07121094 -2.75 37.1640625 C-6.42858813 45.50985931 -13.2630591 51.75432324 -20.8359375 56.5625 C-22.99982834 57.89709024 -22.99982834 57.89709024 -24.55859375 59.55859375 C-29.75840533 64.75840533 -38.14452214 66.98626314 -45.2890625 67.01171875 C-47.57504674 66.96356609 -49.8606766 66.88711871 -52.14453125 66.77734375 C-55.0276311 66.7337194 -55.0276311 66.7337194 -56.88671875 68.50390625 C-57.25410156 68.99761719 -57.62148437 69.49132812 -58 70 C-62.30764815 68.43358249 -66.06171464 66.31663844 -70 64 C-68.79618552 61.50638429 -67.54571278 59.31856917 -66 57 C-65.85056144 54.73255726 -65.77855098 52.4596825 -65.75 50.1875 C-65.08537723 34.60768196 -56.1716672 21.37260467 -45.125 10.84375 C-33.50561853 0.76222784 -14.94321745 -9.14890864 0 0 Z " fill="#FCFAFA" transform="translate(312,141)"/>
<path d="M0 0 C3.61262748 2.70412649 6.8739817 5.73925251 10.14355469 8.83886719 C15.97991529 14.34019861 22.3293845 19.57480477 29.640625 22.9765625 C29.640625 23.6365625 29.640625 24.2965625 29.640625 24.9765625 C30.424375 25.2240625 31.208125 25.4715625 32.015625 25.7265625 C34.90761064 26.72379893 37.69211013 27.80881252 40.515625 28.9765625 C50.25785528 32.8532784 59.28066315 33.49879727 69.640625 33.9765625 C62.16721581 41.89202177 52.71065893 48.29395987 41.640625 48.9765625 C40.98932617 49.01749023 40.33802734 49.05841797 39.66699219 49.10058594 C29.31193174 49.65919597 20.35459857 48.98341184 10.640625 44.9765625 C9.78339844 44.6259375 8.92617187 44.2753125 8.04296875 43.9140625 C0.84997404 40.63104748 -5.13945649 35.7925099 -11.359375 30.9765625 C-13.04126299 29.73972794 -14.72872608 28.51043618 -16.421875 27.2890625 C-27.90203758 18.97010411 -39.32903787 10.57160634 -50.625 2.00390625 C-52.56727474 0.56384826 -54.53966538 -0.83597731 -56.53125 -2.20703125 C-57.54703125 -2.90957031 -58.5628125 -3.61210937 -59.609375 -4.3359375 C-60.52203125 -4.95082031 -61.4346875 -5.56570312 -62.375 -6.19921875 C-63.35726562 -7.10220703 -63.35726562 -7.10220703 -64.359375 -8.0234375 C-64.359375 -9.3434375 -64.359375 -10.6634375 -64.359375 -12.0234375 C-63.1425 -12.4978125 -61.925625 -12.9721875 -60.671875 -13.4609375 C-59.98738281 -13.72777344 -59.30289063 -13.99460938 -58.59765625 -14.26953125 C-37.78833843 -21.2786034 -17.167776 -11.2567154 0 0 Z " fill="#FCB913" transform="translate(226.359375,240.0234375)"/>
<path d="M0 0 C1.57031982 0.00374634 1.57031982 0.00374634 3.17236328 0.00756836 C17.89782223 0.454436 31.41851192 6.44199194 42.75 15.75 C44.22911327 16.8750702 45.70828068 18.00006923 47.1875 19.125 C50.60065025 21.80848385 53.95904632 24.55490793 57.3125 27.3125 C74.72040871 41.56191004 90.98959571 50.39028097 113.75 50.75 C111.51593282 56.80059861 105.18821871 59.01765897 99.75 61.75 C92.04609108 65.0533789 84.0556671 65.55875109 75.75 65.75 C74.698125 65.78738281 73.64625 65.82476562 72.5625 65.86328125 C58.22330343 65.63026931 45.65361908 57.40107502 34.75 48.75 C32.73301763 47.22406307 30.71206865 45.70335724 28.6875 44.1875 C27.70136719 43.44242188 26.71523437 42.69734375 25.69921875 41.9296875 C22.04447474 39.22856543 18.29931465 36.67666682 14.515625 34.16015625 C13.93296875 33.69480469 13.3503125 33.22945312 12.75 32.75 C12.75 32.09 12.75 31.43 12.75 30.75 C12.08097656 30.53472656 11.41195312 30.31945312 10.72265625 30.09765625 C6.77377041 28.30742548 3.60799116 25.82733361 0.1875 23.1875 C-1.23042616 22.10801697 -2.64839538 21.0285905 -4.06640625 19.94921875 C-4.76781738 19.41216309 -5.46922852 18.87510742 -6.19189453 18.32177734 C-9.19607086 16.02748468 -12.22247885 13.76333753 -15.25 11.5 C-16.91666667 10.25 -18.58333333 9 -20.25 7.75 C-19.25 4.75 -19.25 4.75 -15.890625 2.609375 C-10.67386216 0.18415992 -5.68692993 -0.01788343 0 0 Z " fill="#FCB913" transform="translate(209.25,199.25)"/>
<path d="M0 0 C0.99 1.98 0.99 1.98 2 4 C1.60132217 4.39201599 1.20264435 4.78403198 0.79188538 5.18792725 C-3.35343609 9.26691442 -7.48818814 13.3563951 -11.61694336 17.45214844 C-13.15949898 18.97961119 -14.70473554 20.50437142 -16.25268555 22.02636719 C-18.47633687 24.21365871 -20.69018761 26.41046587 -22.90234375 28.609375 C-23.5971434 29.2886908 -24.29194305 29.96800659 -25.00779724 30.66790771 C-25.64838577 31.30826965 -26.2889743 31.94863159 -26.94897461 32.60839844 C-27.51523056 33.16799255 -28.08148651 33.72758667 -28.66490173 34.30413818 C-30.15222666 36.19336058 -30.59362342 37.65087032 -31 40 C-24.9272539 38.65140901 -21.81179223 35.3357398 -17.6328125 31.0234375 C-16.95322479 30.33819 -16.27363708 29.6529425 -15.57345581 28.94692993 C-13.41436595 26.76552791 -11.26963472 24.57060586 -9.125 22.375 C-7.65978131 20.88970982 -6.19364518 19.40532407 -4.7265625 17.921875 C-1.14032862 14.29164207 2.43309536 10.64922269 6 7 C6.99 7.495 6.99 7.495 8 8 C9.02905273 11.1184082 9.02905273 11.1184082 9 15 C7.27139357 17.80745714 4.95176069 19.88558542 2.53515625 22.10546875 C1.86785995 22.75195877 1.20056366 23.39844879 0.51304626 24.06452942 C-1.61904184 26.12542283 -3.77589865 28.15761861 -5.9375 30.1875 C-8.09185251 32.23138521 -10.24010075 34.2808228 -12.37733459 36.34260559 C-13.7075767 37.62381224 -15.0483662 38.89417423 -16.40037537 40.15238953 C-17.30615074 41.01897942 -17.30615074 41.01897942 -18.23022461 41.90307617 C-18.76618759 42.40602707 -19.30215057 42.90897797 -19.85435486 43.4271698 C-21.39251069 45.21456215 -21.39251069 45.21456215 -21 49 C-17.80353166 48.42188317 -16.19368434 47.55859318 -13.94140625 45.234375 C-13.39033203 44.67363281 -12.83925781 44.11289063 -12.27148438 43.53515625 C-11.70751953 42.94605469 -11.14355469 42.35695312 -10.5625 41.75 C-10.00240234 41.17636719 -9.44230469 40.60273438 -8.86523438 40.01171875 C-7.75871708 38.87808726 -6.65506273 37.74165347 -5.55444336 36.60229492 C-3.39486916 34.37624098 -1.19489807 32.19115251 1 30 C1.57105469 29.40574219 2.14210938 28.81148437 2.73046875 28.19921875 C4.11573927 26.76195416 5.556786 25.37907116 7 24 C7.66 24 8.32 24 9 24 C6.42850029 34.80029878 1.03714441 42.61930064 -6 51 C-6.56589844 51.68191406 -7.13179688 52.36382812 -7.71484375 53.06640625 C-14.10551445 60.0750044 -25.46743628 68.39519129 -35 70 C-36.94965949 70.07296023 -38.89946621 70.14424528 -40.84985352 70.1940918 C-41.55940186 70.2125415 -42.2689502 70.23099121 -43 70.25 C-43.70632568 70.26651611 -44.41265137 70.28303223 -45.14038086 70.30004883 C-51.02657583 70.61130149 -53.34357347 72.42216798 -57.203125 76.59765625 C-59 78 -59 78 -61.296875 78.12109375 C-65.64976596 77.21779775 -69.35916863 75.58381581 -73 73 C-72.12848385 71.95541681 -71.25253033 70.91453593 -70.375 69.875 C-69.83359375 69.22402344 -69.2921875 68.57304687 -68.734375 67.90234375 C-67 66 -67 66 -65.265625 64.69140625 C-63.3369871 63.21737585 -62.19560608 62.13019956 -61 60 C-60.73539768 56.49842932 -60.88372819 53.10498726 -61.03125 49.59765625 C-60.91939234 36.72004257 -51.82643168 24.85535586 -43.2109375 15.9765625 C-35.80646423 8.8062598 -25.58391306 1 -15 1 C-16.07899005 4.23697015 -16.583061 4.70324392 -19.125 6.75 C-23.56907798 10.53599697 -27.768297 14.5417294 -31.9375 18.625 C-32.61248535 19.27049805 -33.2874707 19.91599609 -33.98291016 20.58105469 C-34.61632324 21.20657227 -35.24973633 21.83208984 -35.90234375 22.4765625 C-36.47460693 23.03424316 -37.04687012 23.59192383 -37.63647461 24.16650391 C-39.29864684 26.40158241 -39.63264284 28.26662859 -40 31 C-34.7970714 29.52527875 -31.97794629 26.26935019 -28.37890625 22.4609375 C-27.10132467 21.1454319 -25.82331687 19.83034014 -24.54492188 18.515625 C-22.54664259 16.44278857 -20.55345975 14.36550492 -18.56811523 12.28027344 C-16.64321871 10.26477956 -14.70009527 8.26834767 -12.75390625 6.2734375 C-12.16621964 5.64537201 -11.57853302 5.01730652 -10.97303772 4.37020874 C-7.39068186 0.7234716 -5.38359527 -0.81883266 0 0 Z " fill="#F9F5F5" transform="translate(364,168)"/>
<path d="M0 0 C2.475 0.495 2.475 0.495 5 1 C5.66 3.31 6.32 5.62 7 8 C8.32 5.36 9.64 2.72 11 0 C12.65 0 14.3 0 16 0 C16.99 2.31 17.98 4.62 19 7 C19.99 4.69 20.98 2.38 22 0 C23.32 0 24.64 0 26 0 C24.91103333 5.75762166 23.70663707 11.39247819 22 17 C20.35 17 18.7 17 17 17 C14.84694043 13.14243493 13.60746746 10.44870215 14 6 C13.34 6 12.68 6 12 6 C11.34 8.97 10.68 11.94 10 15 C8.35 15.33 6.7 15.66 5 16 C4.16280617 13.70967689 3.3301071 11.41789043 2.5 9.125 C2.14228516 8.14853516 2.14228516 8.14853516 1.77734375 7.15234375 C0 2.2265625 0 2.2265625 0 0 Z " fill="#EEE1E2" transform="translate(88,313)"/>
<path d="M0 0 C9.01875902 -0.48100048 9.01875902 -0.48100048 13.1875 1.5625 C15 4 15 4 14.8125 7.75 C14.544375 8.8225 14.27625 9.895 14 11 C13.34 11 12.68 11 12 11 C12.7425 12.175625 12.7425 12.175625 13.5 13.375 C15 16 15 16 15 18 C11 18 11 18 9.4375 16.5625 C8.963125 16.046875 8.48875 15.53125 8 15 C7.01 14.67 6.02 14.34 5 14 C5 15.32 5 16.64 5 18 C3.35 18 1.7 18 0 18 C0 12.06 0 6.12 0 0 Z " fill="#E0C8CB" transform="translate(131,312)"/>
<path d="M0 0 C1.32 0 2.64 0 4 0 C4 5.94 4 11.88 4 18 C2.68 18 1.36 18 0 18 C-0.33 15.36 -0.66 12.72 -1 10 C-2.485 12.475 -2.485 12.475 -4 15 C-5.875 14.8125 -5.875 14.8125 -8 14 C-9.25 11.4375 -9.25 11.4375 -10 9 C-10.66 9 -11.32 9 -12 9 C-12 11.64 -12 14.28 -12 17 C-12.99 17 -13.98 17 -15 17 C-15 11.72 -15 6.44 -15 1 C-10 2 -10 2 -8.63671875 3.62890625 C-7.7578125 5.41927083 -6.87890625 7.20963542 -6 9 C-3.59927045 6.11912454 -1.52708963 3.43595166 0 0 Z " fill="#F0E5E6" transform="translate(229,312)"/>
<path d="M0 0 C1.65 0 3.3 0 5 0 C12 12.26335878 12 12.26335878 12 17 C10.35 16.67 8.7 16.34 7 16 C7 15.34 7 14.68 7 14 C5.0509375 14.185625 5.0509375 14.185625 3.0625 14.375 C2.33160156 14.44460938 1.60070312 14.51421875 0.84765625 14.5859375 C0.23792969 14.72257812 -0.37179688 14.85921875 -1 15 C-1.33 15.66 -1.66 16.32 -2 17 C-3.65 17 -5.3 17 -7 17 C-5.53012914 10.85326729 -2.94033413 5.57765673 0 0 Z " fill="#DABEC1" transform="translate(157,313)"/>
<path d="M0 0 C2.625 1.0625 2.625 1.0625 3.515625 2.703125 C4.01745836 4.10185202 4.48890263 5.51175809 4.93359375 6.9296875 C5.64644553 9.31893434 5.64644553 9.31893434 7.3125 12.375 C8.625 15.0625 8.625 15.0625 8.625 18.0625 C6.975 17.7325 5.325 17.4025 3.625 17.0625 C3.625 16.0725 3.625 15.0825 3.625 14.0625 C0.985 14.3925 -1.655 14.7225 -4.375 15.0625 C-4.705 16.0525 -5.035 17.0425 -5.375 18.0625 C-7.025 18.0625 -8.675 18.0625 -10.375 18.0625 C-10.09785156 17.54042969 -9.82070313 17.01835937 -9.53515625 16.48046875 C-7.57227747 12.3894857 -6.08779676 8.109397 -4.49609375 3.86328125 C-2.98110557 0.07845015 -2.98110557 0.07845015 0 0 Z " fill="#EDE0E2" transform="translate(387.375,311.9375)"/>
<path d="M0 0 C1.65 0 3.3 0 5 0 C6.17407021 2.26727333 7.33939739 4.53834624 8.5 6.8125 C9.00080078 7.77639648 9.00080078 7.77639648 9.51171875 8.75976562 C11.00239084 11.69547699 12 13.66126517 12 17 C10.35 17 8.7 17 7 17 C6.67 16.01 6.34 15.02 6 14 C3.36 13.67 0.72 13.34 -2 13 C-2.33 14.32 -2.66 15.64 -3 17 C-4.32 17 -5.64 17 -7 17 C-6.37954537 12.76677156 -4.89476441 9.47709705 -2.9375 5.6875 C-2.38964844 4.61886719 -1.84179688 3.55023438 -1.27734375 2.44921875 C-0.64505859 1.23685547 -0.64505859 1.23685547 0 0 Z " fill="#F1E7E8" transform="translate(334,313)"/>
<path d="M0 0 C1.65 0 3.3 0 5 0 C7.92678249 5.55079437 10.1668733 11.00067626 12 17 C10.35 17 8.7 17 7 17 C7 15.68 7 14.36 7 13 C4.03 13 1.06 13 -2 13 C-2.33 14.32 -2.66 15.64 -3 17 C-4.32 17 -5.64 17 -7 17 C-5.1668733 11.00067626 -2.92678249 5.55079437 0 0 Z " fill="#EBDBDD" transform="translate(293,313)"/>
<path d="M0 0 C1.65 0 3.3 0 5 0 C7.92678249 5.55079437 10.1668733 11.00067626 12 17 C10.35 17 8.7 17 7 17 C7 15.68 7 14.36 7 13 C4.03 13 1.06 13 -2 13 C-2.33 14.32 -2.66 15.64 -3 17 C-4.32 17 -5.64 17 -7 17 C-5.1668733 11.00067626 -2.92678249 5.55079437 0 0 Z " fill="#EBDBDD" transform="translate(245,313)"/>
<path d="M0 0 C1.65 0 3.3 0 5 0 C7.92678249 5.55079437 10.1668733 11.00067626 12 17 C10.35 17 8.7 17 7 17 C7 15.68 7 14.36 7 13 C4.03 13 1.06 13 -2 13 C-2.33 14.32 -2.66 15.64 -3 17 C-4.32 17 -5.64 17 -7 17 C-5.1668733 11.00067626 -2.92678249 5.55079437 0 0 Z " fill="#EBDBDD" transform="translate(197,313)"/>
<path d="M0 0 C1.32 0 2.64 0 4 0 C4 1.98 4 3.96 4 6 C4.45890625 5.55527344 4.9178125 5.11054688 5.390625 4.65234375 C6.31101562 3.80349609 6.31101562 3.80349609 7.25 2.9375 C7.85328125 2.36902344 8.4565625 1.80054688 9.078125 1.21484375 C11 0 11 0 13.234375 0.31640625 C13.81703125 0.54199219 14.3996875 0.76757812 15 1 C14.319375 1.7425 13.63875 2.485 12.9375 3.25 C10.80801549 5.7118297 10.80801549 5.7118297 11 8 C12.31778453 10.63556905 14.14219898 12.72269553 16 15 C16 15.66 16 16.32 16 17 C13.6875 16.75 13.6875 16.75 11 16 C9.96854629 14.69084721 8.96457834 13.35917857 8 12 C7.01 12 6.02 12 5 12 C4.67 13.65 4.34 15.3 4 17 C2.68 17 1.36 17 0 17 C0 11.39 0 5.78 0 0 Z " fill="#EDDFE1" transform="translate(401,313)"/>
<path d="M0 0 C2.5 1.5625 2.5 1.5625 4 4 C4 7.625 4 7.625 3 11 C0.68247961 12.97418404 -1.03773621 13.00462076 -4.0625 13.375 C-7 13 -7 13 -8.875 11.375 C-10.31414524 8.33680449 -10.42454541 6.32560568 -10 3 C-7.71982624 -1.02383605 -4.21281932 -0.51736378 0 0 Z " fill="#7B1622" transform="translate(211,347)"/>
<path d="M0 0 C0 1.32 0 2.64 0 4 C-2.64 3.67 -5.28 3.34 -8 3 C-8 3.99 -8 4.98 -8 6 C-6.88625 6.12375 -5.7725 6.2475 -4.625 6.375 C-1 7 -1 7 1 9 C1.1875 12.5625 1.1875 12.5625 1 16 C0 17 0 17 -2.50390625 17.09765625 C-3.51324219 17.08605469 -4.52257812 17.07445312 -5.5625 17.0625 C-6.57441406 17.05347656 -7.58632813 17.04445313 -8.62890625 17.03515625 C-9.41136719 17.02355469 -10.19382812 17.01195312 -11 17 C-11.33 15.35 -11.66 13.7 -12 12 C-9.03 12.33 -6.06 12.66 -3 13 C-3 12.01 -3 11.02 -3 10 C-4.11375 9.87625 -5.2275 9.7525 -6.375 9.625 C-10 9 -10 9 -12 7 C-12.125 4.375 -12.125 4.375 -12 2 C-8.09971775 -0.60018816 -4.52565431 -0.15085514 0 0 Z " fill="#E5D1D3" transform="translate(372,313)"/>
<path d="M0 0 C1.423125 -0.061875 2.84625 -0.12375 4.3125 -0.1875 C5.51326172 -0.23970703 5.51326172 -0.23970703 6.73828125 -0.29296875 C9 0 9 0 10.765625 1.29296875 C12.8384379 4.15948532 12.4248241 6.60140717 12 10 C10.5 11.9375 10.5 11.9375 8 13 C5.27940731 13.22844671 2.7408346 13.13704173 0 13 C0 8.71 0 4.42 0 0 Z " fill="#7F1E29" transform="translate(148,347)"/>
<path d="M0 0 C1.64574566 -0.02688151 3.29161413 -0.04634123 4.9375 -0.0625 C5.85402344 -0.07410156 6.77054687 -0.08570313 7.71484375 -0.09765625 C10 0 10 0 11 1 C11.17858965 3.09916026 11.26798477 5.20622688 11.3125 7.3125 C11.34988281 8.46363281 11.38726562 9.61476563 11.42578125 10.80078125 C11 14 11 14 9.21484375 16.40234375 C6.11745823 18.63661302 3.71942314 18.28610947 0 18 C-0.33 16.68 -0.66 15.36 -1 14 C2 13 2 13 6 14 C6 10.7 6 7.4 6 4 C4.02 4 2.04 4 0 4 C0 2.68 0 1.36 0 0 Z " fill="#E1CACD" transform="translate(271,312)"/>
<path d="M0 0 C4.95 0 9.9 0 15 0 C15 0.99 15 1.98 15 3 C13.35 3 11.7 3 10 3 C10 7.62 10 12.24 10 17 C8.35 17 6.7 17 5 17 C5 12.38 5 7.76 5 3 C3.35 3 1.7 3 0 3 C0 2.01 0 1.02 0 0 Z " fill="#E5D2D4" transform="translate(172,313)"/>
<path d="M0 0 C6.8359375 -0.1953125 6.8359375 -0.1953125 9 0 C9.66 0.66 10.32 1.32 11 2 C10.77614278 4.01471498 10.54581684 6.03145256 10.19140625 8.02734375 C9.84464352 10.2112135 9.84464352 10.2112135 11 13 C10.34 13 9.68 13 9 13 C8.34 12.01 7.68 11.02 7 10 C4.94074861 9.27617533 4.94074861 9.27617533 3 9 C3 10.32 3 11.64 3 13 C2.01 12.67 1.02 12.34 0 12 C0 8.04 0 4.08 0 0 Z " fill="#C3969B" transform="translate(328,347)"/>
<path d="M0 0 C1.65 0 3.3 0 5 0 C5.99 1.98 6.98 3.96 8 6 C9.32 4.02 10.64 2.04 12 0 C13.32 0.33 14.64 0.66 16 1 C15.65066406 1.58007812 15.30132812 2.16015625 14.94140625 2.7578125 C12.36970109 7.17269444 10.40004495 10.79941563 10 16 C8.68 16 7.36 16 6 16 C5.855625 14.906875 5.71125 13.81375 5.5625 12.6875 C5.11711896 9.06877013 5.11711896 9.06877013 4 6 C3.01 5.67 2.02 5.34 1 5 C0.67 3.35 0.34 1.7 0 0 Z " fill="#EDE0E1" transform="translate(308,313)"/>
<path d="M0 0 C6.8359375 -0.1953125 6.8359375 -0.1953125 9 0 C9.66 0.66 10.32 1.32 11 2 C10.67028521 5.29714793 10.3773161 6.6226839 8 9 C5.375 9.125 5.375 9.125 3 9 C3 10.32 3 11.64 3 13 C2.01 12.67 1.02 12.34 0 12 C0 8.04 0 4.08 0 0 Z " fill="#D0ACB0" transform="translate(184,347)"/>
<path d="M0 0 C6.0546875 -0.1953125 6.0546875 -0.1953125 8 0 C8.66 0.66 9.32 1.32 10 2 C9.77614278 4.01471498 9.54581684 6.03145256 9.19140625 8.02734375 C8.84464352 10.2112135 8.84464352 10.2112135 10 13 C9.01 12.67 8.02 12.34 7 12 C6.67 11.34 6.34 10.68 6 10 C3.97536745 9.34786708 3.97536745 9.34786708 2 9 C2 10.32 2 11.64 2 13 C1.34 13 0.68 13 0 13 C0 8.71 0 4.42 0 0 Z " fill="#CCA6AA" transform="translate(238,347)"/>
<path d="M0 0 C4.95 0 9.9 0 15 0 C15 0.99 15 1.98 15 3 C13.35 3 11.7 3 10 3 C10 7.29 10 11.58 10 16 C8.68 16 7.36 16 6 16 C6 11.71 6 7.42 6 3 C4.02 3 2.04 3 0 3 C0 2.01 0 1.02 0 0 Z " fill="#F1E6E7" transform="translate(420,313)"/>
<path d="M0 0 C1.32 0 2.64 0 4 0 C4 5.94 4 11.88 4 18 C2.68 18 1.36 18 0 18 C-0.33 15.36 -0.66 12.72 -1 10 C-2.65 10.33 -4.3 10.66 -6 11 C-4.02 7.37 -2.04 3.74 0 0 Z " fill="#D5B6B9" transform="translate(229,312)"/>
<path d="M0 0 C1.65 0 3.3 0 5 0 C5 5.94 5 11.88 5 18 C3.35 18 1.7 18 0 18 C0 12.06 0 6.12 0 0 Z " fill="#DBC0C3" transform="translate(440,312)"/>
<path d="M0 0 C1.65 0 3.3 0 5 0 C5 5.94 5 11.88 5 18 C3.35 18 1.7 18 0 18 C0 12.06 0 6.12 0 0 Z " fill="#DBC0C3" transform="translate(120,312)"/>
<path d="M0 0 C0.99 0 1.98 0 3 0 C3.83790789 1.78953185 4.67019396 3.58169695 5.5 5.375 C5.9640625 6.37273437 6.428125 7.37046875 6.90625 8.3984375 C8 11 8 11 8 13 C7.34 13 6.68 13 6 13 C5.67 12.34 5.34 11.68 5 11 C2.69 11 0.38 11 -2 11 C-2.33 11.66 -2.66 12.32 -3 13 C-3.66 13 -4.32 13 -5 13 C-4.48474397 7.71862571 -2.74522883 4.42778844 0 0 Z " fill="#CDA7AC" transform="translate(284,347)"/>
<path d="M0 0 C0.8971875 0.309375 0.8971875 0.309375 1.8125 0.625 C1.8125 1.615 1.8125 2.605 1.8125 3.625 C1.173125 3.893125 0.53375 4.16125 -0.125 4.4375 C-2.51881686 5.51167752 -2.51881686 5.51167752 -3.1875 8.625 C-1.5375 8.625 0.1125 8.625 1.8125 8.625 C1.8125 8.955 1.8125 9.285 1.8125 9.625 C-0.4975 9.955 -2.8075 10.285 -5.1875 10.625 C-5.5175 12.275 -5.8475 13.925 -6.1875 15.625 C-7.5075 15.625 -8.8275 15.625 -10.1875 15.625 C-4.81172635 -0.82486737 -4.81172635 -0.82486737 0 0 Z " fill="#EFE2E4" transform="translate(296.1875,314.375)"/>
<path d="M0 0 C0.8971875 0.309375 0.8971875 0.309375 1.8125 0.625 C1.8125 1.615 1.8125 2.605 1.8125 3.625 C1.173125 3.893125 0.53375 4.16125 -0.125 4.4375 C-2.51881686 5.51167752 -2.51881686 5.51167752 -3.1875 8.625 C-1.5375 8.625 0.1125 8.625 1.8125 8.625 C1.8125 8.955 1.8125 9.285 1.8125 9.625 C-0.4975 9.955 -2.8075 10.285 -5.1875 10.625 C-5.5175 12.275 -5.8475 13.925 -6.1875 15.625 C-7.5075 15.625 -8.8275 15.625 -10.1875 15.625 C-4.81172635 -0.82486737 -4.81172635 -0.82486737 0 0 Z " fill="#EFE2E4" transform="translate(248.1875,314.375)"/>
<path d="M0 0 C0.8971875 0.309375 0.8971875 0.309375 1.8125 0.625 C1.8125 1.615 1.8125 2.605 1.8125 3.625 C1.173125 3.893125 0.53375 4.16125 -0.125 4.4375 C-2.51881686 5.51167752 -2.51881686 5.51167752 -3.1875 8.625 C-1.5375 8.625 0.1125 8.625 1.8125 8.625 C1.8125 8.955 1.8125 9.285 1.8125 9.625 C-0.4975 9.955 -2.8075 10.285 -5.1875 10.625 C-5.5175 12.275 -5.8475 13.925 -6.1875 15.625 C-7.5075 15.625 -8.8275 15.625 -10.1875 15.625 C-4.81172635 -0.82486737 -4.81172635 -0.82486737 0 0 Z " fill="#EFE2E4" transform="translate(200.1875,314.375)"/>
<path d="M0 0 C0.66 0.99 1.32 1.98 2 3 C-0.64 3.33 -3.28 3.66 -6 4 C-6 5.98 -6 7.96 -6 10 C-4.02 10.66 -2.04 11.32 0 12 C0 10.35 0 8.7 0 7 C0.66 7 1.32 7 2 7 C2 8.98 2 10.96 2 13 C-0.87470493 14.43735246 -2.81894588 14.38172649 -6 14 C-8.4375 11.875 -8.4375 11.875 -10 9 C-9.93572343 5.78617168 -9.53112958 3.83862565 -7.8125 1.125 C-5.1109399 -0.55183041 -3.10294377 -0.39612048 0 0 Z " fill="#C19297" transform="translate(383,346)"/>
<path d="M0 0 C0.99 0 1.98 0 3 0 C3.99 2.64 4.98 5.28 6 8 C7.32 8 8.64 8 10 8 C9.67 10.31 9.34 12.62 9 15 C7.35 15 5.7 15 4 15 C2.39644899 11.49223216 1.77963136 8.85645121 2 5 C0.68 5.33 -0.64 5.66 -2 6 C-1.34 4.02 -0.68 2.04 0 0 Z " fill="#EEE2E3" transform="translate(100,314)"/>
<path d="M0 0 C0.66 0.33 1.32 0.66 2 1 C2 1.66 2 2.32 2 3 C2.99 3 3.98 3 5 3 C5.33 2.34 5.66 1.68 6 1 C6.67408308 2.26691507 7.33900497 3.53870749 8 4.8125 C8.556875 5.87404297 8.556875 5.87404297 9.125 6.95703125 C10 9 10 9 10 12 C8.35 11.67 6.7 11.34 5 11 C5 10.01 5 9.02 5 8 C2.36 8 -0.28 8 -3 8 C-1.125 1.125 -1.125 1.125 0 0 Z " fill="#D3B1B5" transform="translate(386,318)"/>
<path d="M0 0 C2.5 1.5625 2.5 1.5625 4 4 C4 7.625 4 7.625 3 11 C0.68247961 12.97418404 -1.03773621 13.00462076 -4.0625 13.375 C-7 13 -7 13 -8.875 11.375 C-10.31414524 8.33680449 -10.42454541 6.32560568 -10 3 C-7.71982624 -1.02383605 -4.21281932 -0.51736378 0 0 Z M-8 3 C-8.41666667 6 -8.41666667 6 -8 9 C-6.17296773 11.2491908 -6.17296773 11.2491908 -3.5 11.25 C-0.82703227 11.2491908 -0.82703227 11.2491908 1 9 C1.41666667 6 1.41666667 6 1 3 C-3.01009099 0.32660601 -3.98990901 0.32660601 -8 3 Z " fill="#C89FA3" transform="translate(211,347)"/>
<path d="M0 0 C1.85546875 0.2265625 1.85546875 0.2265625 4 1 C5.30078125 2.9609375 5.30078125 2.9609375 6.3125 5.375 C6.65925781 6.16648437 7.00601563 6.95796875 7.36328125 7.7734375 C8 10 8 10 7 13 C6.67 11.68 6.34 10.36 6 9 C3.6568787 9.25561323 1.32156597 9.59270772 -1 10 C-1.33 10.66 -1.66 11.32 -2 12 C-2.66 12 -3.32 12 -4 12 C-3.33501617 7.61110675 -1.81242323 4.0188515 0 0 Z " fill="#BC898F" transform="translate(170,347)"/>
<path d="M0 0 C2.50298434 2.93828597 3.46930939 5.17902761 4 9 C1.36 9 -1.28 9 -4 9 C-4.33 10.32 -4.66 11.64 -5 13 C-6.32 13 -7.64 13 -9 13 C-8.39301257 8.87248551 -6.96189209 5.6678852 -5 2 C-4.01 2.66 -3.02 3.32 -2 4 C-1.34 2.68 -0.68 1.36 0 0 Z " fill="#E3CDD0" transform="translate(336,317)"/>
<path d="M0 0 C4.0084034 2.0042017 5.41409657 3.49055963 8 7 C8.33 4.69 8.66 2.38 9 0 C9.66 0 10.32 0 11 0 C11 3.96 11 7.92 11 12 C6.9915966 9.9957983 5.58590343 8.50944037 3 5 C2.67 7.64 2.34 10.28 2 13 C1.34 13 0.68 13 0 13 C0 8.71 0 4.42 0 0 Z " fill="#CEA8AD" transform="translate(356,347)"/>
<path d="M0 0 C2.22189824 2.22189824 2.92598892 4.08482708 4 7 C4.99 4.69 5.98 2.38 7 0 C8.32 0 9.64 0 11 0 C9.91103333 5.75762166 8.70663707 11.39247819 7 17 C5.35 17 3.7 17 2 17 C3.32 16.67 4.64 16.34 6 16 C6 14.02 6 12.04 6 10 C5.38125 9.938125 4.7625 9.87625 4.125 9.8125 C2 9 2 9 0.75 6.6875 C0 4 0 4 0 0 Z " fill="#D8BBBF" transform="translate(103,313)"/>
<path d="M0 0 C0.99 0 1.98 0 3 0 C3.33 1.65 3.66 3.3 4 5 C5.65 3.35 7.3 1.7 9 0 C9.66 0.33 10.32 0.66 11 1 C9.68 2.65 8.36 4.3 7 6 C8.98 8.97 8.98 8.97 11 12 C9.0625 11.1875 9.0625 11.1875 7 10 C6.67 9.01 6.34 8.02 6 7 C5.01 7.495 5.01 7.495 4 8 C3.34444881 10.52733235 3.34444881 10.52733235 3 13 C2.01 13 1.02 13 0 13 C0 8.71 0 4.42 0 0 Z " fill="#B88389" transform="translate(263,347)"/>
<path d="M0 0 C1.423125 -0.061875 2.84625 -0.12375 4.3125 -0.1875 C5.51326172 -0.23970703 5.51326172 -0.23970703 6.73828125 -0.29296875 C9 0 9 0 10.765625 1.29296875 C12.8384379 4.15948532 12.4248241 6.60140717 12 10 C10.5 11.9375 10.5 11.9375 8 13 C5.27940731 13.22844671 2.7408346 13.13704173 0 13 C0 8.71 0 4.42 0 0 Z M2 1 C2 4.3 2 7.6 2 11 C6.16938808 11.33467338 6.16938808 11.33467338 9.9375 9.8125 C11.23330193 7.98086328 11.23330193 7.98086328 10.875 5.4375 C10.15610832 2.6738389 10.15610832 2.6738389 7 1 C5.35 1 3.7 1 2 1 Z " fill="#CCA5A9" transform="translate(148,347)"/>
<path d="M0 0 C0 0.33 0 0.66 0 1 C-0.70125 0.979375 -1.4025 0.95875 -2.125 0.9375 C-8.13965471 0.97796263 -8.13965471 0.97796263 -13.16015625 3.91796875 C-13.78792969 4.66691406 -14.41570312 5.41585937 -15.0625 6.1875 C-16.9609375 8.37890625 -16.9609375 8.37890625 -19 10 C-22.64627788 10.21877667 -25.61158834 9.27864591 -29 8 C-30.03125 7.62875 -31.0625 7.2575 -32.125 6.875 C-32.74375 6.58625 -33.3625 6.2975 -34 6 C-33.67 5.34 -33.34 4.68 -33 4 C-32.32453125 4.22816406 -31.6490625 4.45632812 -30.953125 4.69140625 C-30.06109375 4.97886719 -29.1690625 5.26632813 -28.25 5.5625 C-27.36828125 5.85253906 -26.4865625 6.14257812 -25.578125 6.44140625 C-22.84398263 7.03380376 -21.55879526 7.07512406 -19 6 C-17.45964155 4.58914036 -17.45964155 4.58914036 -16 2.9375 C-11.31103531 -1.36157266 -6.0015657 -0.53215853 0 0 Z " fill="#934048" transform="translate(325,238)"/>
<path d="M0 0 C2.97 0 5.94 0 9 0 C9 0.33 9 0.66 9 1 C6.69 1 4.38 1 2 1 C2 2.32 2 3.64 2 5 C4.31 5 6.62 5 9 5 C9 5.66 9 6.32 9 7 C6.69 7 4.38 7 2 7 C2 8.32 2 9.64 2 11 C4.64 11 7.28 11 10 11 C10 11.66 10 12.32 10 13 C8.52093108 13.02689216 7.04172517 13.04634621 5.5625 13.0625 C4.32693359 13.07990234 4.32693359 13.07990234 3.06640625 13.09765625 C1 13 1 13 0 12 C-0.07244053 9.98035801 -0.08377188 7.95832876 -0.0625 5.9375 C-0.05347656 4.83277344 -0.04445313 3.72804688 -0.03515625 2.58984375 C-0.02355469 1.73519531 -0.01195312 0.88054687 0 0 Z " fill="#C3969C" transform="translate(312,347)"/>
<path d="M0 0 C2.97 0 5.94 0 9 0 C9 0.33 9 0.66 9 1 C6.69 1 4.38 1 2 1 C2 2.32 2 3.64 2 5 C3.98 5 5.96 5 8 5 C8 5.66 8 6.32 8 7 C6.02 7 4.04 7 2 7 C2 8.32 2 9.64 2 11 C4.31 11 6.62 11 9 11 C9 11.66 9 12.32 9 13 C2.84765625 13.09765625 2.84765625 13.09765625 1 13 C0 12 0 12 -0.09765625 9.27734375 C-0.08605469 8.17519531 -0.07445312 7.07304687 -0.0625 5.9375 C-0.05347656 4.83277344 -0.04445312 3.72804688 -0.03515625 2.58984375 C-0.02355469 1.73519531 -0.01195312 0.88054687 0 0 Z " fill="#CAA2A7" transform="translate(221,347)"/>
<path d="M0 0 C2.97 0 5.94 0 9 0 C9 0.33 9 0.66 9 1 C7.02 1 5.04 1 3 1 C3 3.64 3 6.28 3 9 C4.65 9 6.3 9 8 9 C8 9.33 8 9.66 8 10 C6.35 10 4.7 10 3 10 C3 11.65 3 13.3 3 15 C2.01 15 1.02 15 0 15 C0 10.05 0 5.1 0 0 Z " fill="#FBF8F9" transform="translate(132,314)"/>
<path d="M0 0 C1.65 0 3.3 0 5 0 C5.66 1.98 6.32 3.96 7 6 C6.34 6 5.68 6 5 6 C4.67 6.66 4.34 7.32 4 8 C3.67 7.01 3.34 6.02 3 5 C2.01 6.485 2.01 6.485 1 8 C0.01 8 -0.98 8 -2 8 C-1.125 2.25 -1.125 2.25 0 0 Z " fill="#F2E8E9" transform="translate(157,313)"/>
<path d="M0 0 C0.99 0 1.98 0 3 0 C3 5.28 3 10.56 3 16 C2.34 16 1.68 16 1 16 C0.92652344 15.06027344 0.92652344 15.06027344 0.8515625 14.1015625 C0.77679688 13.28429687 0.70203125 12.46703125 0.625 11.625 C0.55539063 10.81289063 0.48578125 10.00078125 0.4140625 9.1640625 C0.17107412 6.79665809 0.17107412 6.79665809 -2 5 C-1.34 3.35 -0.68 1.7 0 0 Z " fill="#FBF8F8" transform="translate(229,313)"/>
<path d="M0 0 C1.65 0 3.3 0 5 0 C6.06775224 1.96466413 7.06553465 3.96855359 8 6 C7.67 6.66 7.34 7.32 7 8 C6.34 7.67 5.68 7.34 5 7 C5 7.99 5 8.98 5 10 C3.35 10 1.7 10 0 10 C0.33 8.68 0.66 7.36 1 6 C2.32 5.67 3.64 5.34 5 5 C4.67 4.01 4.34 3.02 4 2 C2.35 2.33 0.7 2.66 -1 3 C-0.67 2.01 -0.34 1.02 0 0 Z " fill="#DEC5C8" transform="translate(293,313)"/>
<path d="M0 0 C1.65 0 3.3 0 5 0 C6.06775224 1.96466413 7.06553465 3.96855359 8 6 C7.67 6.66 7.34 7.32 7 8 C6.34 7.67 5.68 7.34 5 7 C5 7.99 5 8.98 5 10 C3.35 10 1.7 10 0 10 C0.33 8.68 0.66 7.36 1 6 C2.32 5.67 3.64 5.34 5 5 C4.67 4.01 4.34 3.02 4 2 C2.35 2.33 0.7 2.66 -1 3 C-0.67 2.01 -0.34 1.02 0 0 Z " fill="#DEC5C8" transform="translate(245,313)"/>
<path d="M0 0 C1.65 0 3.3 0 5 0 C6.06775224 1.96466413 7.06553465 3.96855359 8 6 C7.67 6.66 7.34 7.32 7 8 C6.34 7.67 5.68 7.34 5 7 C5 7.99 5 8.98 5 10 C3.35 10 1.7 10 0 10 C0.33 8.68 0.66 7.36 1 6 C2.32 5.67 3.64 5.34 5 5 C4.67 4.01 4.34 3.02 4 2 C2.35 2.33 0.7 2.66 -1 3 C-0.67 2.01 -0.34 1.02 0 0 Z " fill="#DEC5C8" transform="translate(197,313)"/>
<path d="M0 0 C0.99 0 1.98 0 3 0 C5.10770759 2.88834003 6 4.38462395 6 8 C4.35 8 2.7 8 1 8 C0.67 6.35 0.34 4.7 0 3 C-1.65 3 -3.3 3 -5 3 C-4.360625 2.690625 -3.72125 2.38125 -3.0625 2.0625 C-1.06389179 1.1654837 -1.06389179 1.1654837 0 0 Z " fill="#E6D3D5" transform="translate(340,322)"/>
<path d="M0 0 C1.98 0 3.96 0 6 0 C6.33 1.65 6.66 3.3 7 5 C4.69 5.33 2.38 5.66 0 6 C0 4.02 0 2.04 0 0 Z " fill="#8D3640" transform="translate(135,316)"/>
<path d="M0 0 C2.375 -0.125 2.375 -0.125 5 0 C5.66 0.66 6.32 1.32 7 2 C6.625 4.125 6.625 4.125 6 6 C4.02 6 2.04 6 0 6 C0 4.02 0 2.04 0 0 Z " fill="#83242F" transform="translate(239,348)"/>
<path d="M0 0 C0.66 0.33 1.32 0.66 2 1 C2.625 3.5625 2.625 3.5625 3 6 C0.23735711 6.59732819 -2.16032769 7 -5 7 C-5.33 7.99 -5.66 8.98 -6 10 C-6.66 10 -7.32 10 -8 10 C-6.92598892 7.08482708 -6.22189824 5.22189824 -4 3 C-3.01 3.33 -2.02 3.66 -1 4 C-0.67 2.68 -0.34 1.36 0 0 Z " fill="#D8BBBE" transform="translate(159,317)"/>
<path d="M0 0 C0.99 0 1.98 0 3 0 C4.49821059 3.37097383 5 5.20442119 5 9 C4.01 8.67 3.02 8.34 2 8 C2 7.01 2 6.02 2 5 C0.68 5.33 -0.64 5.66 -2 6 C-1.34 4.02 -0.68 2.04 0 0 Z " fill="#FAF6F7" transform="translate(100,314)"/>
<path d="M0 0 C2.97 0.495 2.97 0.495 6 1 C5.67 2.65 5.34 4.3 5 6 C3.35 6 1.7 6 0 6 C0 4.02 0 2.04 0 0 Z " fill="#7C1924" transform="translate(331,348)"/>
<path d="M0 0 C2.97 0.495 2.97 0.495 6 1 C5.67 2.65 5.34 4.3 5 6 C3.35 6 1.7 6 0 6 C0 4.02 0 2.04 0 0 Z " fill="#7C1924" transform="translate(187,348)"/>
<path d="M0 0 C-1.58667578 3.90285767 -4.13350481 6.33520982 -7.125 9.25 C-8.03507812 10.14203125 -8.94515625 11.0340625 -9.8828125 11.953125 C-10.58148438 12.62859375 -11.28015625 13.3040625 -12 14 C-12 9.87322664 -9.8002029 8.16826067 -7.125 5.3125 C-6.66480469 4.80138672 -6.20460938 4.29027344 -5.73046875 3.76367188 C-2.26326769 0 -2.26326769 0 0 0 Z " fill="#E8D6D8" transform="translate(326,181)"/>
<path d="M0 0 C0.33 0 0.66 0 1 0 C1 2.31 1 4.62 1 7 C3.31 7.33 5.62 7.66 8 8 C8 8.33 8 8.66 8 9 C6.35 9 4.7 9 3 9 C3 10.32 3 11.64 3 13 C2.01 12.67 1.02 12.34 0 12 C0 8.04 0 4.08 0 0 Z " fill="#B0757C" transform="translate(184,347)"/>
<path d="M0 0 C1.60597325 0.45196245 3.20972508 0.91182327 4.8125 1.375 C6.15248047 1.75785156 6.15248047 1.75785156 7.51953125 2.1484375 C10 3 10 3 13 5 C7.34605369 5.34615998 3.96993194 4.43425238 -1 2 C-0.67 1.34 -0.34 0.68 0 0 Z " fill="#943B34" transform="translate(292,242)"/>
<path d="M0 0 C2.64 0.33 5.28 0.66 8 1 C7.34 2.65 6.68 4.3 6 6 C4.125 5.8125 4.125 5.8125 2 5 C0.75 2.4375 0.75 2.4375 0 0 Z " fill="#F6F0F1" transform="translate(219,321)"/>
<path d="M0 0 C0.66 0.33 1.32 0.66 2 1 C0.68 2.65 -0.64 4.3 -2 6 C-0.02 8.97 -0.02 8.97 2 12 C0.0625 11.1875 0.0625 11.1875 -2 10 C-2.33 9.01 -2.66 8.02 -3 7 C-3.66 7 -4.32 7 -5 7 C-3.70700306 4.11562221 -2.34058637 2.12780579 0 0 Z " fill="#D2B0B4" transform="translate(272,347)"/>
<path d="M0 0 C1.010625 0.0825 2.02125 0.165 3.0625 0.25 C3.7225 1.24 4.3825 2.23 5.0625 3.25 C0.6075 3.745 0.6075 3.745 -3.9375 4.25 C-3.9375 0.33510638 -3.9375 0.33510638 0 0 Z " fill="#B67E84" transform="translate(379.9375,345.75)"/>
<path d="M0 0 C1.98 0.66 3.96 1.32 6 2 C6 2.33 6 2.66 6 3 C5.030625 3.28875 4.06125 3.5775 3.0625 3.875 C-0.10664203 4.64214682 -0.10664203 4.64214682 -1 7 C-1.99 7 -2.98 7 -4 7 C-4 6.34 -4 5.68 -4 5 C-3.34 5 -2.68 5 -2 5 C-1.7834375 4.0409375 -1.7834375 4.0409375 -1.5625 3.0625 C-1 1 -1 1 0 0 Z " fill="#FBF7F8" transform="translate(155,322)"/>
<path d="M0 0 C1.67542976 0.28604898 3.34385343 0.61781233 5 1 C4.01 1.33 3.02 1.66 2 2 C2 2.66 2 3.32 2 4 C3.65 4 5.3 4 7 4 C7 4.33 7 4.66 7 5 C4.69 5 2.38 5 0 5 C-0.5625 3.0625 -0.5625 3.0625 -1 1 C-0.67 0.67 -0.34 0.34 0 0 Z " fill="#D4B4B8" transform="translate(271,325)"/>
<path d="M0 0 C0.66 0 1.32 0 2 0 C2.33 1.65 2.66 3.3 3 5 C1.35 5 -0.3 5 -2 5 C-1.125 1.125 -1.125 1.125 0 0 Z " fill="#9C5159" transform="translate(295,318)"/>
<path d="M0 0 C0.66 0 1.32 0 2 0 C2.33 1.65 2.66 3.3 3 5 C1.35 5 -0.3 5 -2 5 C-1.125 1.125 -1.125 1.125 0 0 Z " fill="#9C5159" transform="translate(247,318)"/>
<path d="M0 0 C0.66 0 1.32 0 2 0 C2.33 1.65 2.66 3.3 3 5 C1.35 5 -0.3 5 -2 5 C-1.125 1.125 -1.125 1.125 0 0 Z " fill="#9C5159" transform="translate(199,318)"/>
<path d="M0 0 C0.33 0.66 0.66 1.32 1 2 C3.64 2 6.28 2 9 2 C9 2.33 9 2.66 9 3 C7.865625 3.12375 6.73125 3.2475 5.5625 3.375 C3.7990625 3.684375 3.7990625 3.684375 2 4 C1.67 4.66 1.34 5.32 1 6 C0.34 6 -0.32 6 -1 6 C-0.67 4.02 -0.34 2.04 0 0 Z " fill="#A96870" transform="translate(280,354)"/>
<path d="M0 0 C3 3.75 3 3.75 3 6 C1.35 6 -0.3 6 -2 6 C-1.34 4.02 -0.68 2.04 0 0 Z " fill="#8A313B" transform="translate(285,349)"/>
<path d="M0 0 C1.32 0.33 2.64 0.66 4 1 C3.67 1.99 3.34 2.98 3 4 C1.35 4 -0.3 4 -2 4 C-1.34 2.68 -0.68 1.36 0 0 Z " fill="#DCC1C4" transform="translate(379,326)"/>
<path d="M0 0 C0.33 0 0.66 0 1 0 C1 2.97 1 5.94 1 9 C0.34 8.01 -0.32 7.02 -1 6 C-1.66 6 -2.32 6 -3 6 C-1.125 1.125 -1.125 1.125 0 0 Z " fill="#8F3943" transform="translate(228,321)"/>
<path d="M0 0 C3 3.75 3 3.75 3 6 C1.35 6 -0.3 6 -2 6 C-1.34 4.02 -0.68 2.04 0 0 Z " fill="#923E48" transform="translate(336,317)"/>
<path d="M0 0 C0.66 0.33 1.32 0.66 2 1 C1.67 3.31 1.34 5.62 1 8 C0.34 7.67 -0.32 7.34 -1 7 C-1.04254356 5.00045254 -1.04080783 2.99958364 -1 1 C-0.67 0.67 -0.34 0.34 0 0 Z " fill="#B47A81" transform="translate(213,350)"/>
<path d="M0 0 C2.64 0.33 5.28 0.66 8 1 C8 1.66 8 2.32 8 3 C5.69 3 3.38 3 1 3 C0.67 2.01 0.34 1.02 0 0 Z " fill="#F8F4F4" transform="translate(361,326)"/>
<path d="M0 0 C0.66 0.33 1.32 0.66 2 1 C2.625 3.5625 2.625 3.5625 3 6 C1.68 6 0.36 6 -1 6 C-0.67 4.02 -0.34 2.04 0 0 Z " fill="#903B45" transform="translate(159,317)"/>
<path d="M0 0 C1.32 0 2.64 0 4 0 C4 1.32 4 2.64 4 4 C1.69 3.67 -0.62 3.34 -3 3 C-2.01 2.67 -1.02 2.34 0 2 C0 1.34 0 0.68 0 0 Z " fill="#E3CFD1" transform="translate(368,313)"/>
</svg>
